<svg xmlns="http://www.w3.org/2000/svg" width="1183.227" height="1196.085" viewBox="0 0 1183.227 1196.085"><defs><style>.a{fill:#fff;opacity:0.1;}</style></defs><path class="a" d="M1404.394,1097.328c-7.174-53.8-78.755-134.463-190.047-165.408-95.5-26.575-186.878-58.336-233.084-96.294a76.643,76.643,0,0,1-6.883-6.745c-56.007-55.918-86.194-129.91-85.193-208.229.9-78.235,32.856-151.44,90.171-206.192,57.189-54.724,137.865-98.134,256.833-56.341,88.559,31.045,152.937,188.569,152.937,188.569-25.042-25.127-163.046-54.091-198.92-54.429-36.1-.324-70.163,12.915-95.927,37.579a129.676,129.676,0,0,0-2.114,186.4c23.04,23.2,201.242,66.107,261.8,113.623,161.405,126.522,50.432,267.463,50.432,267.463M825.378,257.1s-178.7-24.3-209.626,180.7c-11.736,76.956,39.016,253.565,30.118,285.424-9.706,34.754-32.051,63.661-63.169,81.242a131.579,131.579,0,0,1-101.6,12.312c-34.386-9.711-62.75-32.45-80.369-63.844-17.575-31.425-60.54-165.972-50.82-200.712,0,0-106.455,136.627-89.769,229.422C282.5,906.272,360.629,954.068,437.021,975.738c76.336,21.726,156.511,11.974,225.742-27.305,69.133-39.237,118.968-103.46,140.395-180.6a89.643,89.643,0,0,0,2.42-9.486c10.428-59.615-6.966-155.079-31.022-251.6-28.1-112.511,7.176-215.847,50.822-249.644M367.164,1175.128s69.565,170.65,263.021,94.341c72.679-28.7,200.254-163.006,232.4-171.227A133.554,133.554,0,0,1,965.188,1113a137.846,137.846,0,0,1,47.414,187.514c-18.409,31.438-113.53,137.667-148.4,146.732,0,0,172.347,25.127,244.332-36.68,96.929-83.013,98.876-176.455,79.062-255.111-19.926-78.628-68.954-144.807-138.115-186.151-69.036-41.416-150-53.277-227.828-33.138-3.225.842-6.368,1.518-9.4,2.6-56.982,21.052-131,84.856-202.564,155.038-83.594,81.791-191.049,102.816-242.524,81.327" transform="translate(-258.365 -256.212)"/></svg>