<svg id="Layer_1" data-name="Layer 1" xmlns="http://www.w3.org/2000/svg" width="74.31mm" height="74.32mm" viewBox="0 0 210.65 210.68">
  <defs>
    <style>
      .cls-1 {
        fill: #fff;
      }
    </style>
  </defs>
  <path class="cls-1" d="M215.91,162.38c-1.27-9.47-14-23.68-33.83-29.13-17-4.68-33.27-10.28-41.5-17a13.71,13.71,0,0,1-1.22-1.19,50.47,50.47,0,0,1,.89-73c10.18-9.64,24.54-17.28,45.72-9.92,15.76,5.47,27.23,33.21,27.23,33.21-4.46-4.42-29-9.52-35.42-9.58a24.29,24.29,0,0,0-17.07,6.62,22.66,22.66,0,0,0-.38,32.83c4.1,4.09,35.82,11.64,46.61,20,28.73,22.29,9,47.11,9,47.11m-103.08-148S81,10.11,75.51,46.21c-2.08,13.56,6.95,44.67,5.37,50.28a23.79,23.79,0,0,1-43.65,5.23c-3.12-5.53-10.77-29.23-9-35.35,0,0-19,24.07-16,40.41,4,21.95,17.89,30.37,31.49,34.19a52.86,52.86,0,0,0,65.18-36.62,16.44,16.44,0,0,0,.43-1.67c1.85-10.51-1.24-27.32-5.52-44.32-5-19.82,1.27-38,9-44M31.26,176.09s12.38,30.06,46.82,16.61c12.94-5,35.65-28.71,41.38-30.15a24.11,24.11,0,0,1,26.71,35.63c-3.28,5.53-20.22,24.24-26.42,25.84,0,0,30.68,4.43,43.49-6.46,17.26-14.62,17.6-31.08,14.08-44.94A53.6,53.6,0,0,0,112.17,134a17,17,0,0,0-1.67.46c-10.15,3.7-23.32,14.94-36.06,27.3-14.89,14.41-34,18.11-43.18,14.33" transform="translate(-11.89 -14.23)"/>
</svg>
